PathFileType	4	(X/Y/Z)
DataRate	CameraRate	NumFrames	NumMarkers	Units	OrigDataRate	OrigDataStartFrame	OrigNumFrames
120	120	4	142	mm	120	208	553	
Frame#	Time	 STRN			 T1			 T8			 T10			 T12			 C7			 CLAV			 LANK			 RANK			 LANI			 RANI			 LASI			 RASI			 LPSI			 RPSI			 LSHO			 RSHO			 LTOE			 RTOE			 RHEE			 LHEE			 LKNE			 RKNE			 LKNI			 RKNI			 RIWR			 LIWR			 RELB			 LELB			 RELBIN			 LELBIN			 LOWR			 ROWR			 RCLAV			 LCLAV			 RFHD			 LBHD			 LFHD			 RBHD			 LMT1			 LMT5			 RMT1			 RMT5			 Tracking_L5			 Tracking_L4			 Tracking_L3			 Tracking_L2			 Tracking_L1			 Tracking_T11			 Tracking_T9			 Tracking_T7			 Tracking_T6			 Tracking_T5			 Tracking_T4			 Tracking_T3			 Tracking_T2			 rthumb			 rindex			 rmiddle			 rring			 rpinky			 lthumb			 lindex			 lmiddle			 lring			 lpinky			 ROOT			 Spine1			 Spine2			 Spine3			 LHIPJ			 RHIPJ			 LKJC			 RKJC			 LAJC			 RAJC			 LFOOT			 RFOOT			 NECK			 LCOL			 RCOL			 HEAD			 LSHOULDER			 RSHOULDER			 LELC			 RELC			 LWRIST			 RWRIST			 left_index1			 left_index2			 left_index3			 left_middle1			 left_middle2			 left_middle3			 left_pinky1			 left_pinky2			 left_pinky3			 left_ring1			 left_ring2			 left_ring3			 left_thumb1			 left_thumb2			 left_thumb3			 right_index1			 right_index2			 right_index3			 right_middle1			 right_middle2			 right_middle3			 right_pinky1			 right_pinky2			 right_pinky3			 right_ring1			 right_ring2			 right_ring3			 right_thumb1			 right_thumb2			 right_thumb3			 MASI			 MPSI			 MHIPJ			 CENTER			 Virtual_LWRIST			 Virtual_RWRIST			 Virtual_LAJC			 Virtual_RAJC			 Virtual_LKJC			 Virtual_RKJC			 Virtual_LELC			 Virtual_RELC			 Virtual_Ground_RAJC			 Virtual_Ground_LAJC			 Virtual_Ground_RFOOT			 Virtual_Ground_LFOOT			 Virtual_Ground_RTOE			 Virtual_Ground_LTOE			 Virtual_Ground_RMT1			 Virtual_Ground_LMT1			 Virtual_Ground_RMT5			 Virtual_Ground_LMT5			 Virtual_Ground_RHEE			 Virtual_Ground_LHEE		
		X1	Y1	Z1	X2	Y2	Z2	X3	Y3	Z3	X4	Y4	Z4	X5	Y5	Z5	X6	Y6	Z6	X7	Y7	Z7	X8	Y8	Z8	X9	Y9	Z9	X10	Y10	Z10	X11	Y11	Z11	X12	Y12	Z12	X13	Y13	Z13	X14	Y14	Z14	X15	Y15	Z15	X16	Y16	Z16	X17	Y17	Z17	X18	Y18	Z18	X19	Y19	Z19	X20	Y20	Z20	X21	Y21	Z21	X22	Y22	Z22	X23	Y23	Z23	X24	Y24	Z24	X25	Y25	Z25	X26	Y26	Z26	X27	Y27	Z27	X28	Y28	Z28	X29	Y29	Z29	X30	Y30	Z30	X31	Y31	Z31	X32	Y32	Z32	X33	Y33	Z33	X34	Y34	Z34	X35	Y35	Z35	X36	Y36	Z36	X37	Y37	Z37	X38	Y38	Z38	X39	Y39	Z39	X40	Y40	Z40	X41	Y41	Z41	X42	Y42	Z42	X43	Y43	Z43	X44	Y44	Z44	X45	Y45	Z45	X46	Y46	Z46	X47	Y47	Z47	X48	Y48	Z48	X49	Y49	Z49	X50	Y50	Z50	X51	Y51	Z51	X52	Y52	Z52	X53	Y53	Z53	X54	Y54	Z54	X55	Y55	Z55	X56	Y56	Z56	X57	Y57	Z57	X58	Y58	Z58	X59	Y59	Z59	X60	Y60	Z60	X61	Y61	Z61	X62	Y62	Z62	X63	Y63	Z63	X64	Y64	Z64	X65	Y65	Z65	X66	Y66	Z66	X67	Y67	Z67	X68	Y68	Z68	X69	Y69	Z69	X70	Y70	Z70	X71	Y71	Z71	X72	Y72	Z72	X73	Y73	Z73	X74	Y74	Z74	X75	Y75	Z75	X76	Y76	Z76	X77	Y77	Z77	X78	Y78	Z78	X79	Y79	Z79	X80	Y80	Z80	X81	Y81	Z81	X82	Y82	Z82	X83	Y83	Z83	X84	Y84	Z84	X85	Y85	Z85	X86	Y86	Z86	X87	Y87	Z87	X88	Y88	Z88	X89	Y89	Z89	X90	Y90	Z90	X91	Y91	Z91	X92	Y92	Z92	X93	Y93	Z93	X94	Y94	Z94	X95	Y95	Z95	X96	Y96	Z96	X97	Y97	Z97	X98	Y98	Z98	X99	Y99	Z99	X100	Y100	Z100	X101	Y101	Z101	X102	Y102	Z102	X103	Y103	Z103	X104	Y104	Z104	X105	Y105	Z105	X106	Y106	Z106	X107	Y107	Z107	X108	Y108	Z108	X109	Y109	Z109	X110	Y110	Z110	X111	Y111	Z111	X112	Y112	Z112	X113	Y113	Z113	X114	Y114	Z114	X115	Y115	Z115	X116	Y116	Z116	X117	Y117	Z117	X118	Y118	Z118	X119	Y119	Z119	X120	Y120	Z120	X121	Y121	Z121	X122	Y122	Z122	X123	Y123	Z123	X124	Y124	Z124	X125	Y125	Z125	X126	Y126	Z126	X127	Y127	Z127	X128	Y128	Z128	X129	Y129	Z129	X130	Y130	Z130	X131	Y131	Z131	X132	Y132	Z132	X133	Y133	Z133	X134	Y134	Z134	X135	Y135	Z135	X136	Y136	Z136	X137	Y137	Z137	X138	Y138	Z138	X139	Y139	Z139	X140	Y140	Z140	X141	Y141	Z141	X142	Y142	Z142

208	1.7250	491.318911	-407.665640	1141.629696	514.938712	-240.504354	1443.144441	538.461506	-144.589499	1253.996491	537.368834	-142.686933	1200.381875	536.169469	-147.341326	1145.676732	511.745334	-256.937146	1456.821203	486.946702	-373.218864	1351.762176	836.871088	-195.193961	92.656419	313.406795	-116.495773	176.313445	772.983849	-189.035162	108.856246	374.073118	-144.652531	181.931064	653.305173	-355.901510	912.686527	393.061817	-319.370866	891.247988	607.573569	-124.858752	973.854542	488.093466	-111.009054	963.638604	634.075820	-345.071375	1406.402588	362.910092	-281.390905	1396.589279	790.265560	-353.126168	-4.460288	268.780589	-246.319339	50.441131	378.073215	-55.122241	138.382301	807.322085	-117.742553	45.684502	787.979186	-345.312089	487.664133	280.950934	-390.340716	500.347912	682.717562	-341.303706	459.036797	388.961136	-414.051384	467.180341	369.207025	-414.969653	998.513877	613.009751	-490.704298	1017.795205	219.239891	-208.417878	1050.746560	827.521026	-354.184359	1074.799299	297.851056	-166.188136	1031.357884	778.734386	-283.618033	1044.356823	622.240424	-476.447731	960.393071	367.244035	-396.280825	938.830554	417.230397	-340.163052	1365.452290	563.489079	-374.454379	1369.732738	415.724069	-434.425682	1612.069249	545.611441	-346.802860	1673.129082	514.099956	-462.634116	1615.747809	448.633254	-315.843195	1667.471290	795.662284	-304.708809	26.886271	865.266085	-282.302946	15.482830	288.395107	-211.184189	85.841879	231.002718	-155.534253	94.301328	542.814016	-133.064821	1009.282947	540.020585	-141.489282	1035.351157	538.115323	-148.068547	1065.398574	536.069036	-150.536492	1092.154622	535.949826	-149.753794	1117.816329	536.699831	-144.738406	1172.567606	538.041532	-142.809093	1228.171945	537.720203	-148.127124	1277.004361	535.803497	-159.348488	1317.558527	532.241344	-172.603726	1349.497676	525.889218	-195.601955	1390.524268	521.983385	-210.587859	1412.292480	518.576801	-225.059733	1428.415537	500.025392	-477.447063	1002.230644	514.318049	-505.388081	961.070418	515.870869	-497.085035	934.025228	507.073998	-478.961229	923.299968	491.744578	-460.766405	904.856145	472.004056	-512.293518	1020.601988	450.239837	-521.081328	987.457573	446.989596	-513.641536	965.207994	463.828743	-500.074983	954.982698	482.767403	-491.652042	935.928404	533.187747	-260.749459	906.081915	531.192660	-210.405707	1028.621197	522.440076	-265.048146	1150.984645	514.101446	-283.790052	1200.145006	602.646887	-256.422967	829.265952	479.419202	-250.599623	809.342682	743.629575	-336.469740	482.846111	328.253239	-395.286471	490.260541	795.712411	-193.964928	85.234091	351.869792	-134.165749	164.715573	835.476279	-295.805275	-3.303124	249.488384	-183.058843	71.115121	492.521614	-306.427538	1409.233093	579.242110	-313.802481	1317.319036	429.736972	-272.764653	1314.139962	487.179995	-365.541488	1482.992411	709.451854	-343.222946	1297.137856	308.333069	-256.997734	1289.429307	805.832982	-316.735297	1059.644103	258.284152	-181.832522	1040.826559	610.010803	-481.717914	981.729984	378.412396	-410.068184	961.070836	520.048738	-541.411757	990.372539	488.440335	-551.335990	989.131629	469.619930	-537.604332	988.533020	517.041862	-545.018137	965.288877	485.912144	-548.694849	958.887100	466.806710	-533.063114	959.427834	534.848332	-517.229497	927.731693	515.254796	-514.153659	922.876060	499.549001	-502.465665	925.729513	526.409447	-532.115996	942.970276	496.894687	-533.930063	941.174090	478.422344	-518.179238	945.011854	561.305821	-494.108707	1006.541133	531.881690	-497.714311	1018.205643	507.915437	-510.079861	1022.423267	441.233575	-497.655898	969.372272	467.466444	-518.758833	964.915991	489.905894	-512.600303	961.694360	441.025645	-502.540469	942.546546	468.220651	-517.319858	933.772564	491.404682	-509.340763	932.370663	433.288336	-469.764709	904.462755	452.458173	-472.855449	898.233771	471.199363	-466.970861	899.804413	435.925275	-487.039447	919.407308	462.483972	-499.313414	914.664865	485.530227	-490.492731	916.222095	419.662118	-437.069714	987.135112	448.338002	-448.620409	996.856928	468.922496	-467.147708	999.770880	523.183495	-337.636188	901.967257	547.833517	-117.933903	968.746573	541.033044	-253.511295	819.304317	535.508506	-227.785045	935.356915	617.625087	-483.576015	989.094138	368.225530	-405.625239	968.672216	804.927468	-192.114562	100.756332	343.739957	-130.574152	179.122254	735.348374	-343.307897	473.350465	334.956035	-402.196050	483.764127	803.127706	-318.901196	1059.578061	258.545473	-187.303007	1041.052222	343.739957	-739.163160	179.122254	804.927468	-739.163160	100.756332	249.488384	-739.163160	71.115121	835.476279	-739.163160	-3.303124	268.780589	-739.163160	50.441131	790.265560	-739.163160	-4.460288	288.395107	-739.163160	85.841879	795.662284	-739.163160	26.886271	231.002718	-739.163160	94.301328	865.266085	-739.163160	15.482830	378.073215	-739.163160	138.382301	807.322085	-739.163160	45.684502
209	1.7333	497.207135	-407.314658	1136.151671	522.068322	-240.489095	1437.748075	545.028448	-144.609556	1248.661041	543.736160	-142.717019	1194.944859	542.433083	-147.535384	1140.016913	518.867195	-256.782711	1451.373935	493.554145	-373.008132	1346.212506	840.018690	-194.459349	88.423371	331.708789	-112.575643	177.068770	776.114821	-187.818319	104.667842	392.195255	-140.889466	182.785511	658.333302	-355.820119	906.039119	398.353964	-315.827668	883.743048	614.621520	-125.141814	969.744742	495.195985	-109.989211	959.273458	641.122282	-345.554501	1399.788857	369.528264	-280.667722	1390.830040	791.898549	-353.548169	-6.087423	287.855595	-239.198685	47.822654	396.703482	-50.392266	141.215205	811.117351	-117.299668	40.244222	793.640554	-349.205017	482.019335	291.287690	-393.211246	494.275451	688.285291	-343.764067	453.650802	399.922490	-416.740328	462.476850	374.416471	-414.395571	992.996514	619.876087	-491.508961	1008.582115	227.156729	-205.775931	1044.595718	834.383130	-355.484456	1067.223549	306.248903	-164.415568	1025.159717	785.992324	-284.631580	1036.821604	629.602313	-477.225959	951.254308	372.817069	-395.767808	933.329821	423.789173	-339.670688	1359.924436	570.126057	-374.615550	1363.784194	422.542453	-433.697402	1607.273221	553.078890	-346.724689	1668.051362	520.736814	-462.379992	1610.711813	456.257820	-315.254718	1662.443995	797.767758	-304.700434	24.579046	867.685437	-283.213437	13.090848	307.325006	-205.055445	84.298253	250.034958	-149.592072	93.839705	549.383044	-133.417755	1004.263401	546.407223	-142.124429	1030.058265	544.376194	-148.748383	1059.940696	542.302370	-151.071623	1086.525321	542.206705	-150.083870	1112.120032	543.019474	-144.817352	1167.012453	544.512630	-142.839924	1222.812533	544.407248	-148.152828	1271.680593	542.680800	-159.411997	1312.266946	539.188027	-172.680497	1344.175100	532.944858	-195.720553	1385.156155	529.084384	-210.755497	1406.899810	525.693119	-225.195602	1423.019409	504.853129	-477.357686	997.774720	519.258201	-505.338848	956.703067	521.138668	-497.051209	929.515064	512.530804	-478.843272	918.707430	497.376889	-460.490823	900.202692	478.721172	-512.654364	1010.056496	457.146019	-521.306515	976.718903	454.290301	-513.885140	954.556763	471.284419	-500.477672	944.492936	490.357012	-492.208213	925.528228	539.326787	-259.436935	899.469912	537.256002	-211.233318	1022.865534	528.729320	-264.841974	1145.701289	520.251215	-283.735812	1194.779634	609.164417	-254.417360	823.040307	486.086249	-247.086987	802.694440	749.308050	-339.519650	477.486104	338.750333	-398.145556	484.775811	798.906088	-192.912638	81.049562	370.133460	-130.034208	165.632010	837.792158	-296.763092	-5.520762	268.428117	-176.492989	70.075095	499.405503	-306.469262	1403.931737	585.751474	-314.028710	1311.680675	436.356485	-272.549659	1309.105158	493.923217	-365.268856	1477.931619	715.576649	-343.624264	1289.388537	315.354019	-255.494207	1283.305287	812.859595	-318.001211	1052.167773	266.537517	-179.633796	1034.668684	617.241025	-482.399762	972.526670	383.745402	-409.615159	955.585480	527.055681	-541.853428	980.469942	495.437711	-551.707625	978.946865	476.656914	-537.934005	978.114963	524.290383	-545.536578	955.369651	493.217319	-549.161792	948.670030	474.144667	-533.483565	948.968232	542.536199	-517.915606	917.899787	522.999406	-514.810145	912.838817	507.293761	-503.075898	915.496647	533.910513	-532.731235	933.102846	504.410863	-534.482181	931.018472	485.938698	-518.675387	934.619427	568.261862	-494.593322	996.891916	538.714528	-498.090923	1008.274317	514.678061	-510.386050	1012.293816	446.234494	-497.400165	964.298964	472.438812	-518.577397	960.031331	494.921833	-512.483180	956.996500	446.227461	-502.256453	937.467337	473.447561	-517.108679	928.896427	496.665955	-509.197950	927.689254	438.894868	-469.418377	899.357140	458.104789	-472.560436	893.279076	476.850331	-466.733962	895.006418	441.359729	-486.716360	914.304137	467.918724	-499.065369	909.762263	490.978092	-490.315765	911.513865	424.703091	-436.767608	981.951773	453.265101	-448.414624	991.891444	473.769784	-467.006832	994.951129	528.343633	-335.823894	894.891083	554.908752	-117.565513	964.509100	547.625333	-250.752173	812.867373	541.626193	-226.694703	929.700091	624.739200	-484.367460	979.918212	373.616770	-405.081689	963.163167	808.066756	-191.138834	96.545607	361.952022	-126.732554	179.927140	740.962923	-346.484542	467.835069	345.605090	-404.975787	478.376150	810.187727	-320.058018	1052.022576	266.702816	-185.095750	1034.877717	361.952022	-739.163160	179.927140	808.066756	-739.163160	96.545607	268.428117	-739.163160	70.075095	837.792158	-739.163160	-5.520762	287.855595	-739.163160	47.822654	791.898549	-739.163160	-6.087423	307.325006	-739.163160	84.298253	797.767758	-739.163160	24.579046	250.034958	-739.163160	93.839705	867.685437	-739.163160	13.090848	396.703482	-739.163160	141.215205	811.117351	-739.163160	40.244222
210	1.7417	502.837241	-407.148272	1131.126642	528.813660	-240.314320	1432.694316	551.371515	-144.518226	1243.472219	549.965501	-142.617777	1189.821005	548.597515	-147.369027	1135.024190	525.625706	-256.555051	1446.339726	499.905288	-372.841865	1341.319799	843.215883	-192.764446	85.090309	350.866258	-108.275428	177.684814	779.468894	-185.048804	101.021200	410.798967	-137.430444	184.561104	665.983140	-355.289668	902.357519	405.761153	-316.085190	878.421187	621.067166	-124.468349	965.152442	501.578033	-109.612942	953.841388	648.031890	-345.469862	1394.066811	375.870168	-279.919535	1385.745406	793.068945	-352.765828	-6.483403	308.713257	-233.897582	46.991799	417.484671	-46.807602	143.576533	815.942109	-115.778580	35.343442	796.980619	-351.306558	476.498097	299.772501	-394.770235	489.001185	691.464782	-344.896078	448.944122	408.782303	-418.618649	458.325148	380.242288	-413.601309	987.533808	626.379371	-492.129028	999.429166	235.897511	-202.837706	1038.981676	840.281129	-355.667025	1060.385466	315.692514	-162.674397	1019.791484	791.902423	-285.000741	1029.956818	636.826217	-477.751762	942.263067	378.428698	-395.213336	927.839160	430.012286	-339.286268	1355.132341	576.715946	-374.474794	1358.621001	429.353803	-432.734460	1602.832794	560.386598	-346.172690	1663.167357	527.389288	-461.841434	1606.149435	463.702530	-314.314097	1657.670498	799.611628	-303.400069	23.336504	870.002627	-283.397406	11.800680	327.501565	-200.039640	83.966583	270.785242	-143.814817	91.896802	555.683076	-132.818386	999.392390	552.618563	-141.595975	1025.219798	550.515831	-148.333699	1055.106759	548.423648	-150.759920	1081.662297	548.329413	-149.861142	1107.228875	549.204111	-144.699842	1161.949992	550.790071	-142.746344	1217.642903	550.806820	-148.065284	1266.492128	549.209654	-159.324169	1307.086945	545.796633	-172.609642	1339.004278	539.702892	-195.650086	1380.038619	535.869658	-210.653901	1401.801825	532.470703	-225.070313	1417.935014	510.178983	-477.669328	991.700232	523.963809	-506.166697	950.596988	525.647402	-498.066992	923.344970	517.167151	-479.953498	912.514210	501.976371	-461.539596	894.000530	485.051125	-512.495160	999.184608	463.878721	-520.937800	965.599477	461.299330	-513.483763	943.465531	478.490680	-500.147104	933.608055	497.786492	-492.024422	914.894819	546.425104	-259.170949	894.892573	543.408930	-210.484147	1018.078804	534.828782	-264.749259	1140.622377	526.369274	-283.461720	1189.773202	616.756380	-254.272074	818.909109	493.797809	-247.343704	797.717214	752.823949	-341.242522	472.192913	347.420037	-399.958581	480.099410	802.049398	-190.461397	77.278465	389.141470	-126.132295	167.050034	839.995027	-296.808511	-6.637481	289.314032	-170.883641	68.737656	506.064355	-306.330621	1398.963809	592.147648	-313.934594	1306.471229	442.802489	-272.251636	1304.336309	500.697613	-364.869595	1473.178506	721.744180	-343.462914	1282.801867	322.052717	-254.336804	1277.941704	818.760514	-318.335623	1045.418978	275.760740	-177.314505	1029.179454	624.217808	-482.856184	963.429034	389.346749	-409.102172	950.084567	533.641398	-541.854024	970.240593	501.994967	-551.547110	968.325436	483.295858	-537.678063	967.268586	531.165838	-545.514643	945.106745	500.159442	-548.979819	938.024640	481.164277	-533.205092	938.094974	550.010264	-517.973900	907.874823	530.553043	-514.767587	902.575552	514.875650	-502.954662	905.045092	541.123569	-532.750726	922.964811	511.643231	-534.351170	920.517743	493.208587	-518.452048	923.897982	574.881971	-494.809270	987.186193	545.179725	-498.160720	998.203576	521.033645	-510.335088	1001.922727	451.064229	-497.426331	958.849251	477.022022	-518.886924	954.491377	499.533534	-513.033092	951.205015	450.760216	-502.472341	932.054341	477.754653	-517.648757	923.338771	501.036048	-509.972811	921.860099	443.389982	-469.835430	893.778980	462.511182	-473.206997	887.546122	481.327385	-467.550844	889.058113	445.827007	-487.050205	908.826292	472.222090	-499.688596	904.127598	495.380163	-491.151273	905.602992	430.284470	-436.463833	976.264954	458.824158	-448.317140	986.023247	479.176104	-467.085570	989.026427	535.872146	-335.687429	890.389353	561.322600	-117.040645	959.496915	555.277094	-250.807889	808.313161	548.597373	-226.364037	924.943134	631.602794	-484.940395	970.846117	379.335493	-404.407322	957.686484	811.342388	-188.906625	93.055755	380.832613	-122.852936	181.122959	744.222701	-348.101318	462.721109	354.277402	-406.694442	473.663166	816.091776	-320.333883	1045.171142	275.795013	-182.756051	1029.386580	380.832613	-739.163160	181.122959	811.342388	-739.163160	93.055755	289.314032	-739.163160	68.737656	839.995027	-739.163160	-6.637481	308.713257	-739.163160	46.991799	793.068945	-739.163160	-6.483403	327.501565	-739.163160	83.966583	799.611628	-739.163160	23.336504	270.785242	-739.163160	91.896802	870.002627	-739.163160	11.800680	417.484671	-739.163160	143.576533	815.942109	-739.163160	35.343442
211	1.7500	508.604825	-406.769663	1126.482606	535.204291	-239.615709	1427.868962	557.667077	-144.072279	1238.351822	556.228101	-142.286062	1184.788704	554.795861	-147.128046	1130.069017	532.006085	-255.889446	1441.614389	506.114900	-372.253746	1336.671233	846.737027	-190.164119	80.446951	370.192260	-104.623176	178.114161	783.224106	-181.053191	96.200697	429.778874	-134.207636	185.905799	671.408117	-355.422348	897.248864	410.853595	-316.723496	874.047756	626.596749	-124.457285	960.146904	506.976724	-109.650373	949.135423	654.606879	-345.158368	1388.559103	382.071048	-278.934240	1380.682707	793.311298	-351.566941	-6.356608	329.786688	-228.188485	44.775892	437.885672	-43.068919	146.325454	821.102977	-113.783367	28.457928	800.414026	-350.989074	470.457971	309.652179	-397.172004	482.591540	694.815695	-343.304366	443.523347	419.411689	-420.275390	453.521490	385.775983	-412.988037	981.855750	632.985830	-492.664099	989.417076	244.356185	-200.345084	1033.549309	845.680773	-355.768412	1053.658962	324.702978	-161.228687	1014.321089	797.409475	-285.065085	1023.312688	644.031823	-477.995664	932.444155	383.967131	-394.763976	922.149360	436.134726	-338.521540	1350.420713	583.018005	-373.981148	1353.663564	436.120600	-431.608349	1598.487854	567.642689	-345.489234	1658.155441	533.944011	-461.172819	1601.506472	471.112847	-313.240021	1652.956009	801.069021	-301.479310	22.073615	871.943712	-283.426553	9.917011	348.142862	-195.067108	82.766406	291.746408	-138.424665	90.135925	561.354101	-132.754564	994.570971	558.393657	-141.501456	1020.407081	556.381822	-148.187056	1050.287604	554.393888	-150.569171	1076.826453	554.379404	-149.642617	1102.378964	555.447996	-144.412249	1156.960845	557.061136	-142.362073	1212.566495	557.141662	-147.561684	1261.350513	555.629969	-158.727527	1301.956654	552.256882	-171.997368	1333.895564	546.210527	-195.051521	1374.981523	542.379260	-210.041791	1396.773458	538.934588	-224.427760	1412.977219	515.259147	-477.596998	986.448467	528.850794	-506.494045	945.384920	530.572534	-498.462290	918.044686	522.250235	-480.416685	907.179713	507.148683	-461.928189	888.550282	491.625994	-512.335181	988.041043	470.667332	-520.597517	954.347134	468.271822	-513.114035	932.198346	485.649318	-499.778122	922.459483	505.075514	-491.752744	903.935611	551.853478	-259.236455	890.183985	549.232721	-210.373029	1013.309240	540.908337	-264.518708	1135.923266	532.407641	-283.191830	1185.081959	621.910512	-254.388332	813.944340	498.871624	-247.595444	793.178976	756.401420	-340.378702	466.369689	357.269794	-402.072310	474.298716	805.611551	-187.021315	72.446577	408.711106	-122.423030	167.914256	841.614544	-296.724021	-7.931004	310.528815	-165.367112	67.169182	512.467384	-305.614084	1394.355893	598.364770	-313.522220	1301.716208	449.073493	-271.636963	1299.780250	507.135212	-364.302605	1468.454838	727.557003	-343.443066	1276.387811	328.559130	-253.205121	1272.675157	824.219227	-318.506330	1038.840413	284.621179	-175.361052	1023.741961	631.233215	-483.146846	953.481674	394.752681	-408.722132	944.388449	540.380180	-541.805685	959.490418	508.713484	-551.375449	957.307935	490.076631	-537.433743	956.116498	538.094044	-545.427561	934.333026	507.132947	-548.765838	926.996350	488.198161	-532.918692	926.931977	557.343960	-517.915845	897.287548	537.942648	-514.629006	891.835034	522.290945	-502.759039	894.191861	548.279166	-532.676101	912.287593	518.813670	-534.160912	909.600377	500.413120	-518.195331	912.850440	581.661582	-494.938731	976.824999	551.858604	-498.189360	987.597883	527.637005	-510.275602	991.107166	456.023246	-497.317284	953.544974	481.874585	-518.925846	949.286401	504.416347	-513.198793	945.983887	455.703229	-502.473712	926.771283	482.624203	-517.821610	918.129146	505.944312	-510.268807	916.626930	448.510110	-469.960600	888.357162	467.616320	-473.454058	882.145464	486.460119	-467.886060	883.640707	450.855523	-487.124294	903.477132	477.188468	-499.914438	898.841023	500.388563	-491.487265	900.289237	435.543537	-436.179042	970.698059	464.020014	-448.134422	980.516315	484.276474	-466.991961	983.605444	541.130856	-336.072922	885.648310	566.786736	-117.053829	954.641163	560.391068	-250.991888	803.561658	553.958796	-226.563375	920.144737	638.508826	-485.329881	960.930616	384.871557	-403.876007	952.002555	814.980567	-185.608655	88.323824	399.985567	-119.415406	182.009980	747.614861	-347.146720	456.990659	364.531934	-408.723697	468.056515	821.545124	-320.416749	1038.485825	284.529582	-180.786885	1023.935199	399.985567	-739.163160	182.009980	814.980567	-739.163160	88.323824	310.528815	-739.163160	67.169182	841.614544	-739.163160	-7.931004	329.786688	-739.163160	44.775892	793.311298	-739.163160	-6.356608	348.142862	-739.163160	82.766406	801.069021	-739.163160	22.073615	291.746408	-739.163160	90.135925	871.943712	-739.163160	9.917011	437.885672	-739.163160	146.325454	821.102977	-739.163160	28.457928
